<svg xmlns="http://www.w3.org/2000/svg" viewBox="0 0 500 500"><g id="freepik--background-complete--inject-23"><path d="M457.74,390.29c4.13-2.13,9-2.41,13.58-1.65,2.46.4,5,1.14,6.7,3s2,5.11.07,6.69a6.44,6.44,0,0,1-4.23,1.08c-3.58,0-7.57-.68-10.43,1.48-1.64,1.23-2.73,3.28-4.68,3.89a4.64,4.64,0,0,1-5.09-2.26,7.91,7.91,0,0,1-.57-5.84A8.86,8.86,0,0,1,457.74,390.29Z" style="fill:#ebebeb"></path><path d="M448.28,372c2.53,3.6,7.44,2.41,9.71.21s3.24-5.39,4.11-8.44c2-6.95,4-14.24,2.53-21.31a11.77,11.77,0,0,0-2.72-5.8,6.19,6.19,0,0,0-5.86-1.95c-2.48.65-4,3.08-5.13,5.38a51,51,0,0,0-5,21.81c0,3.51.4,7.2,2.38,10.1" style="fill:#ebebeb"></path><path d="M441.35,377.2c2.74-3.25,3.26-8,2-12.07a23.23,23.23,0,0,0-7.15-10.38,38.38,38.38,0,0,0-12.8-7.55,13.65,13.65,0,0,0-5.76-1,6.06,6.06,0,0,0-4.84,2.92c-1.34,2.57,0,5.69,1.35,8.23a96.15,96.15,0,0,0,8.41,12.81c2.52,3.25,5.41,6.46,9.25,7.93s7.83,1.29,9.87-1.37" style="fill:#ebebeb"></path><path d="M448.11,426.42a7.24,7.24,0,0,0,.23-1.64c.12-1.19.26-2.69.44-4.47a65.83,65.83,0,0,1,1-6.56,50.23,50.23,0,0,1,2.39-7.74,28.14,28.14,0,0,1,3.95-7,14.62,14.62,0,0,1,5-4.16,13.85,13.85,0,0,1,4.21-1.31,7.66,7.66,0,0,0,1.63-.24,8.52,8.52,0,0,0-1.66,0,12.71,12.71,0,0,0-4.39,1.14,14.67,14.67,0,0,0-5.27,4.19,27.48,27.48,0,0,0-4.1,7.15,47.18,47.18,0,0,0-2.37,7.86,57,57,0,0,0-.87,6.65c-.14,1.89-.19,3.43-.22,4.49A8.91,8.91,0,0,0,448.11,426.42Z" style="fill:#e0e0e0"></path><path d="M448.42,423a3.44,3.44,0,0,0,.05-.76c0-.57,0-1.29,0-2.18,0-1.88,0-4.61.1-8,.16-6.75.74-14,1.87-24.24,1.06-9.62,2.48-20.81,4-28.09.32-1.66.64-3.15.95-4.45s.54-2.44.78-3.35.38-1.56.51-2.11a3.29,3.29,0,0,0,.13-.75,3.38,3.38,0,0,0-.26.71c-.17.55-.38,1.24-.63,2.08s-.57,2-.9,3.33-.7,2.78-1.05,4.44a247.73,247.73,0,0,0-4.2,26.07c-1.12,10.25-1.63,19.59-1.67,26.35,0,3.38,0,6.11.12,8,.05.88.09,1.6.13,2.17A3.83,3.83,0,0,0,448.42,423Z" style="fill:#e0e0e0"></path><path d="M448.47,405a15.15,15.15,0,0,0,0-2.27,61.69,61.69,0,0,0-.69-6.15,81.69,81.69,0,0,0-2-9A72.28,72.28,0,0,0,442,377a56.67,56.67,0,0,0-11-17.15,30,30,0,0,0-2.59-2.4c-.4-.34-.75-.67-1.11-.94l-1-.69a13.9,13.9,0,0,0-1.92-1.23,67.19,67.19,0,0,1,6.27,5.6,59.34,59.34,0,0,1,10.73,17.08,83,83,0,0,1,3.77,10.51,88.15,88.15,0,0,1,2.13,8.87c.47,2.56.74,4.65.91,6.09A13.27,13.27,0,0,0,448.47,405Z" style="fill:#e0e0e0"></path><polygon points="431.06 436.74 432.87 461.45 464.62 461.45 466.43 436.74 431.06 436.74" style="fill:#e0e0e0"></polygon><rect x="428" y="426.99" width="42.22" height="9.74" style="fill:#e0e0e0"></rect><polygon points="428 460.51 428 463.21 429.98 463.21 469.52 463.21 469.52 460.51 428 460.51" style="fill:#ebebeb"></polygon><polygon points="431.93 467.96 429.98 463.21 468 463.21 465.74 467.96 431.93 467.96" style="fill:#e0e0e0"></polygon><path d="M465.84,444.81a1.58,1.58,0,0,1-.15.23l-.48.63L463.36,448l-.08.1-.08-.11-4.54-6.28h.26l-4.48,6.33-.14.2-.15-.19-5.31-6.31h.31c-.1.11-.19.24-.29.36l-4.75,5.95-.16.2-.14-.21-4.48-6.33h.26L434.08,448l-.1.11-.08-.12-1.72-2.9-.44-.77a1.13,1.13,0,0,1-.14-.28,1.35,1.35,0,0,1,.18.25c.13.19.3.44.49.74.45.69,1.05,1.65,1.82,2.85l-.18,0c1.42-1.65,3.26-3.81,5.43-6.36l.14-.16.12.18,4.52,6.3h-.31c1.51-1.89,3.09-3.89,4.74-6l.29-.37.15-.19.15.19,5.3,6.32h-.3l4.52-6.3.13-.18.13.18,4.45,6.35h-.16l1.92-2.31.52-.59A.84.84,0,0,1,465.84,444.81Z" style="fill:#f5f5f5"></path><path d="M466.87,436.57c0,.11-8,.2-17.77.2s-17.77-.09-17.77-.2,7.95-.2,17.77-.2S466.87,436.46,466.87,436.57Z" style="fill:#f5f5f5"></path><path d="M468.47,463.47c0,.11-8.64.2-19.31.2s-19.31-.09-19.31-.2,8.64-.19,19.31-.19S468.47,463.36,468.47,463.47Z" style="fill:#f5f5f5"></path><path d="M18,416.32V444H13.37v3H18v18.52h86.37V448.67H98V445h6.4v-5.51h2.85V437h-3.38V416.32Z" style="fill:#f5f5f5"></path><polygon points="81.43 416.4 81.43 465.22 104.36 465.22 104.36 448.36 97.97 448.36 97.97 445 104.36 445.11 104.36 439.61 107.26 439.61 107.21 436.76 103.83 436.68 103.83 416.32 81.43 416.4" style="fill:#e0e0e0"></polygon><path d="M83.06,446.6c0,.17-15.63.31-34.9.31s-34.91-.14-34.91-.31,15.63-.3,34.91-.3S83.06,446.44,83.06,446.6Z" style="fill:#e0e0e0"></path><path d="M83.06,443.79c0,.17-15.63.31-34.9.31s-34.91-.14-34.91-.31,15.63-.3,34.91-.3S83.06,443.62,83.06,443.79Z" style="fill:#e0e0e0"></path><path d="M87.54,436.23c0,.17-15.62.3-34.9.3s-34.91-.13-34.91-.3,15.63-.31,34.91-.31S87.54,436.06,87.54,436.23Z" style="fill:#e0e0e0"></path><path d="M88,456.84c0,.17-15.63.31-34.91.31s-34.9-.14-34.9-.31,15.62-.3,34.9-.3S88,456.68,88,456.84Z" style="fill:#e0e0e0"></path><path d="M31.78,368.19v27.67H27.15v3h4.63v18.52h86.36V400.53h-6.39v-3.67h6.39v-5.5H121v-2.51h-3.38V368.19Z" style="fill:#f5f5f5"></path><polygon points="95.21 368.27 95.21 417.08 118.14 417.08 118.14 400.23 111.75 400.23 111.75 396.86 118.14 396.98 118.14 391.47 121.04 391.47 120.99 388.63 117.61 388.55 117.61 368.19 95.21 368.27" style="fill:#e0e0e0"></polygon><path d="M96.84,398.47c0,.17-15.63.3-34.9.3S27,398.64,27,398.47s15.63-.31,34.91-.31S96.84,398.3,96.84,398.47Z" style="fill:#e0e0e0"></path><path d="M96.84,395.66c0,.17-15.63.3-34.9.3S27,395.83,27,395.66s15.63-.31,34.91-.31S96.84,395.49,96.84,395.66Z" style="fill:#e0e0e0"></path><path d="M101.33,388.09c0,.17-15.63.31-34.91.31s-34.9-.14-34.9-.31,15.62-.31,34.9-.31S101.33,387.92,101.33,388.09Z" style="fill:#e0e0e0"></path><path d="M101.76,408.71c0,.17-15.63.3-34.91.3s-34.9-.13-34.9-.3,15.62-.31,34.9-.31S101.76,408.54,101.76,408.71Z" style="fill:#e0e0e0"></path><path d="M170.69,60.8l-.22-.07-.61-.24-2.34-1L159,55.84,130.74,43.56l-1-.43h.2L102.34,55,94,58.46l-2.28.93a4.24,4.24,0,0,1-.81.29,5.68,5.68,0,0,1,.77-.38l2.24-1,8.3-3.66,27.57-12,.1,0,.1,0,1,.43,28.14,12.42,8.51,3.82,2.3,1.06.59.29A.68.68,0,0,1,170.69,60.8Z" style="fill:#e0e0e0"></path><rect x="33.56" y="56.75" width="181.12" height="135.61" style="fill:#e0e0e0"></rect><rect x="39.89" y="63.05" width="169.14" height="123.74" style="fill:#fafafa"></rect><path d="M77.25,117.11s.17,20.78,1.23,27.11L104.53,143s-2.29-20.42-1.4-25.88Z" style="fill:#e0e0e0"></path><path d="M90.08,120.05h.38a6.41,6.41,0,0,1,1.08,0,6,6,0,0,1,1.66.5A5.39,5.39,0,0,1,95,122a6.37,6.37,0,0,1,1.25,2.51,6.09,6.09,0,0,1-.27,3.22,9.68,9.68,0,0,1-.74,1.61c-.29.52-.58,1-.83,1.62a14,14,0,0,0-1,3.7v.09h-.09l-2.57,0-2.7,0H87.9v-.09a7.61,7.61,0,0,0-1.25-3.56c-.31-.54-.65-1-1-1.54a14.73,14.73,0,0,1-.92-1.5,5.07,5.07,0,0,1-.41-3.17,6.87,6.87,0,0,1,1-2.6A5,5,0,0,1,87,120.85a6.33,6.33,0,0,1,1.6-.62,5.82,5.82,0,0,1,1.07-.17l.28,0h0l-.28,0a7.93,7.93,0,0,0-1,.21,6.17,6.17,0,0,0-1.57.64,4.92,4.92,0,0,0-1.64,1.51,6.85,6.85,0,0,0-1,2.55,4.84,4.84,0,0,0,.42,3.07,14,14,0,0,0,.91,1.47c.32.5.66,1,1,1.54a7.84,7.84,0,0,1,1.29,3.65l-.1-.09,2.7,0,2.57,0-.1.09a14.16,14.16,0,0,1,1.08-3.75,15.81,15.81,0,0,1,.85-1.64,9.29,9.29,0,0,0,.72-1.58,5.88,5.88,0,0,0,.29-3.13,6.11,6.11,0,0,0-1.2-2.45,5.25,5.25,0,0,0-1.75-1.42,6.12,6.12,0,0,0-1.62-.52,7,7,0,0,0-1.07-.08h-.38Z" style="fill:#fff"></path><path d="M91.42,134.52a.73.73,0,0,1,0-.08l0-.24c0-.22-.08-.53-.14-.93-.12-.81-.29-2-.41-3.44,0-.36,0-.74-.07-1.14s0-.82,0-1.25a3.36,3.36,0,0,1,.29-1.3,2,2,0,0,1,1-1,1.35,1.35,0,0,1,1.42.27,1,1,0,0,1,.31.72,1.24,1.24,0,0,1-.27.74,1.66,1.66,0,0,1-.63.51,3.33,3.33,0,0,1-.77.26,9.92,9.92,0,0,1-1.64.19,10.15,10.15,0,0,1-1.66-.08,3.35,3.35,0,0,1-.78-.23,1.94,1.94,0,0,1-.66-.47,1.52,1.52,0,0,1-.38-.69,1.19,1.19,0,0,1,.09-.77,1.05,1.05,0,0,1,.55-.53.91.91,0,0,1,.74,0,1.26,1.26,0,0,1,.55.47,1.78,1.78,0,0,1,.28.65,7.68,7.68,0,0,1,.13,1.33c0,.86.09,1.65.13,2.38.07,1.46.13,2.64.17,3.46,0,.4,0,.72,0,.94v.24a.21.21,0,0,1,0,.09v-.09l0-.24c0-.22,0-.53-.06-.94,0-.82-.12-2-.2-3.45,0-.73-.09-1.53-.13-2.39a7.39,7.39,0,0,0-.14-1.31,1.67,1.67,0,0,0-.27-.63,1.23,1.23,0,0,0-.52-.44.85.85,0,0,0-.68,0,1,1,0,0,0-.51.49,1.12,1.12,0,0,0-.08.72,1.39,1.39,0,0,0,.36.66,2.37,2.37,0,0,0,1.39.67,10,10,0,0,0,1.64.08,9.68,9.68,0,0,0,1.63-.19,3.76,3.76,0,0,0,.76-.25,1.87,1.87,0,0,0,.6-.48,1.24,1.24,0,0,0,.25-.7,1,1,0,0,0-.28-.66,1.28,1.28,0,0,0-1.34-.26,1.89,1.89,0,0,0-1,1,3.42,3.42,0,0,0-.3,1.28c0,.42,0,.84,0,1.23s0,.78.06,1.15c.11,1.45.27,2.62.38,3.43.06.41.1.72.13.94l0,.24A.45.45,0,0,1,91.42,134.52Z" style="fill:#fff"></path><path d="M88,134.66s0,.32.06.87.08,1.38.12,2.25l0-.05,1.75,2-.09,0,2-.11-.08,0,1-1.23.51-.62,0,.08c0-1.19,0-2.32-.07-3.34l.11.1-3.79.05H88a1.66,1.66,0,0,1,.36,0l1.07-.05,3.85-.15h.11v.11c0,1,.07,2.15.1,3.34v0l0,0-.51.62c-.35.42-.69.83-1,1.23l0,0h-.05l-2,.1h0l0,0-1.72-2,0,0v0c0-.9,0-1.67,0-2.32A4.84,4.84,0,0,1,88,134.66Z" style="fill:#fff"></path><path d="M93.22,137.59l-.19-.08c-.12,0-.3-.13-.53-.21a5.41,5.41,0,0,0-1.83-.28,5.48,5.48,0,0,0-1.81.39l-.51.24-.19.1.17-.12a5.38,5.38,0,0,1,.51-.27,5,5,0,0,1,1.83-.42,5,5,0,0,1,1.85.31c.23.09.4.17.52.23Z" style="fill:#fff"></path><path d="M93.22,136.78,93,136.7c-.12,0-.3-.13-.53-.21a5.41,5.41,0,0,0-1.83-.28,5.48,5.48,0,0,0-1.81.39,5.26,5.26,0,0,0-.51.24l-.19.1.17-.12a3.23,3.23,0,0,1,.51-.27,4.79,4.79,0,0,1,1.83-.42,5,5,0,0,1,1.85.31,4,4,0,0,1,.52.23Z" style="fill:#fff"></path><path d="M93.17,136a1.24,1.24,0,0,1-.19-.08,4.84,4.84,0,0,0-.53-.21,5.41,5.41,0,0,0-1.83-.28,5.24,5.24,0,0,0-1.81.39c-.22.09-.39.18-.51.24l-.19.09.17-.12c.12-.07.29-.16.51-.26a4.84,4.84,0,0,1,1.83-.42,5,5,0,0,1,1.85.31,4,4,0,0,1,.52.23Z" style="fill:#fff"></path><path d="M48.23,83.16s.18,20.77,1.24,27.11L75.52,109s-2.29-20.42-1.41-25.87Z" style="fill:#ebebeb"></path><path d="M70.18,91.88a75.49,75.49,0,0,1-8.72.78,75.54,75.54,0,0,1-8.76.27,75.52,75.52,0,0,1,8.73-.78A75.36,75.36,0,0,1,70.18,91.88Z" style="fill:#fff"></path><path d="M70.19,96.28a75.52,75.52,0,0,1-8.73.78,75.36,75.36,0,0,1-8.75.27,75.49,75.49,0,0,1,8.72-.78A75.54,75.54,0,0,1,70.19,96.28Z" style="fill:#fff"></path><path d="M65.76,100.6a24.7,24.7,0,0,1-5,.56,25,25,0,0,1-5,0,24.47,24.47,0,0,1,5-.55A24.46,24.46,0,0,1,65.76,100.6Z" style="fill:#fff"></path><path d="M47,144.27s.18,20.77,1.23,27.11l26.05-1.24s-2.28-20.42-1.4-25.87Z" style="fill:#ebebeb"></path><path d="M69,153a75.52,75.52,0,0,1-8.73.78,72.77,72.77,0,0,1-8.75.27,75.49,75.49,0,0,1,8.72-.78A75.54,75.54,0,0,1,69,153Z" style="fill:#fff"></path><path d="M69,157.39a75.52,75.52,0,0,1-8.73.78,75.54,75.54,0,0,1-8.76.27,75.83,75.83,0,0,1,8.73-.78A75.54,75.54,0,0,1,69,157.39Z" style="fill:#fff"></path><path d="M64.53,161.71a24.87,24.87,0,0,1-5,.56,24.86,24.86,0,0,1-5,0,24.3,24.3,0,0,1,5-.55A24.57,24.57,0,0,1,64.53,161.71Z" style="fill:#fff"></path><polygon points="118.2 88.66 120.78 148.57 195.57 149.47 192.21 89.45 118.2 88.66" style="fill:#ebebeb"></polygon><rect x="117.33" y="88.23" width="74.29" height="56.1" style="fill:#f5f5f5"></rect><path d="M191.62,144.33s0-.36,0-1,0-1.69,0-3c0-2.63,0-6.46-.06-11.35,0-9.79-.06-23.78-.11-40.72l.21.21-74.28,0h0l.26-.26c0,20.18,0,39.28,0,56.1l-.23-.23,53.59.12,15.24.06,4.05,0h1.41l-.33,0h-1l-4,0-15.19.06-53.74.11h-.23v-.23c0-16.82,0-35.92,0-56.1V88h.27l74.28,0h.21v.21c0,17-.08,31-.11,40.85,0,4.87,0,8.68-.05,11.3,0,1.28,0,2.27,0,3S191.62,144.33,191.62,144.33Z" style="fill:#e0e0e0"></path><rect x="126.29" y="100.12" width="30.12" height="37.9" style="fill:#f5f5f5"></rect><path d="M156.41,138a.58.58,0,0,1,0-.19l0-.54c0-.5,0-1.19,0-2.07,0-1.83,0-4.46-.07-7.78,0-6.67-.06-16.11-.11-27.32l.23.23-30.11,0,.25-.25h0v5.2c0,1.72,0,3.42,0,5.11v9.83c0,6.37,0,12.33,0,17.75l-.21-.21,21.81.11,6.12.05,1.62,0c.37,0,.57,0,.57,0a2.86,2.86,0,0,1-.53,0l-1.58,0-6.07.05-21.94.11h-.21V138c0-5.42,0-11.38,0-17.75,0-3.18,0-6.47,0-9.83V100.13h0l.26-.26,30.11,0h.23v.23c0,11.27-.09,20.76-.12,27.47,0,3.29,0,5.9-.06,7.72,0,.87,0,1.54,0,2,0,.21,0,.38,0,.51A1,1,0,0,1,156.41,138Z" style="fill:#e0e0e0"></path><rect x="127.45" y="91.44" width="57.72" height="5.46" style="fill:#f5f5f5"></rect><path d="M185.16,96.91s0-.14,0-.38,0-.61,0-1.06c0-1,0-2.29-.06-4l.1.11c-9.73.09-31.92.15-57.71.15h0l.25-.25h0v5.45l-.25-.26,40.91.11,12.28.08,3.34,0,.87,0a1.09,1.09,0,0,1,.31,0h-.27l-.84,0-3.29,0-12.22.07-41.09.11h-.26v-5.7h0c.11-.12-.25.25.26-.26h0c25.79,0,48,.06,57.71.15h.11v.1c0,1.76-.05,3.13-.06,4.09,0,.44,0,.78,0,1A1.23,1.23,0,0,1,185.16,96.91Z" style="fill:#e0e0e0"></path><rect x="160.1" y="100.12" width="25.07" height="22.84" style="fill:#f5f5f5"></rect><path d="M185.16,123a4.17,4.17,0,0,1,0-.44l0-1.24c0-1.12,0-2.68-.05-4.66,0-4-.07-9.69-.11-16.5l.21.21-25.06,0,.25-.25h0v6.11c0,2,0,4,0,5.9,0,3.83,0,7.46,0,10.81l-.22-.22,18.08.11,5.13.06,1.37,0a2.68,2.68,0,0,1,.48,0,2.17,2.17,0,0,1-.43,0l-1.33,0-5.08.06-18.22.12h-.23V123c0-3.35,0-7,0-10.81,0-1.92,0-3.89,0-5.9v-6.11h0l.26-.26,25.06,0h.22v.22c0,6.87-.08,12.59-.11,16.64,0,1.95,0,3.5-.06,4.61,0,.5,0,.89,0,1.2A1.7,1.7,0,0,1,185.16,123Z" style="fill:#e0e0e0"></path><rect x="160.1" y="126.54" width="25.07" height="11.48" style="fill:#f5f5f5"></rect><path d="M185.16,138s0-.3,0-.83l0-2.31c0-2-.06-4.86-.1-8.34l.18.19-25.06.07c-.23.23.31-.31.25-.26h0v5.9c0,1.92,0,3.78,0,5.56l-.24-.24,17.92.11,5.22.07,1.42,0,.5,0a2.29,2.29,0,0,1-.45,0l-1.36,0-5.17.07-18.08.11h-.25V138c0-1.78,0-3.64,0-5.56v-5.9h0l.26-.25,25.06.07h.19v.18c0,3.53-.08,6.4-.1,8.46,0,.94,0,1.69-.05,2.26A3.83,3.83,0,0,1,185.16,138Z" style="fill:#e0e0e0"></path><path d="M155.66,100.18c-9.32,12.88-20,25-29.37,37.84" style="fill:#fff"></path><path d="M126.29,138a1.74,1.74,0,0,1,.25-.42c.21-.32.47-.7.79-1.16.68-1,1.72-2.42,3-4.16,2.59-3.48,6.29-8.19,10.44-13.34s7.89-9.82,10.55-13.24l3.14-4.06.86-1.09a2.61,2.61,0,0,1,.33-.37s-.07.16-.24.43-.47.69-.79,1.15c-.69,1-1.72,2.42-3,4.16-2.59,3.48-6.3,8.19-10.44,13.34s-7.89,9.82-10.55,13.24l-3.14,4.06-.87,1.1Q126.32,138,126.29,138Z" style="fill:#e0e0e0"></path><line x1="126.29" y1="100.12" x2="156.41" y2="138.02" style="fill:#fff"></line><path d="M156.41,138c-.11.09-6.94-8.33-15.26-18.79s-15-19-14.86-19.11,6.94,8.32,15.26,18.79S156.52,137.93,156.41,138Z" style="fill:#e0e0e0"></path><path d="M120.78,100.2a4.72,4.72,0,1,1-4.71-4.71A4.71,4.71,0,0,1,120.78,100.2Z" style="fill:#e0e0e0"></path><path d="M197.83,88.76a4.71,4.71,0,1,1-4.71-4.71A4.71,4.71,0,0,1,197.83,88.76Z" style="fill:#e0e0e0"></path><path d="M288.34,57.66l.18,3.32a2.86,2.86,0,1,1,2.11,5,2.87,2.87,0,0,1-1.88-.59l.18,3.33a2.79,2.79,0,0,1,1.81-.79,2.87,2.87,0,0,1,.3,5.74,2.82,2.82,0,0,1-1.88-.59l.18,3.33a2.84,2.84,0,0,1,1.81-.79,2.88,2.88,0,1,1-1.58,5.16l.18,3.32a2.87,2.87,0,1,1,2.12,5,2.8,2.8,0,0,1-1.88-.59l.17,3.33a2.87,2.87,0,1,1,2.12,5,2.86,2.86,0,0,1-1.88-.59l.18,3.32a2.88,2.88,0,1,1,.23,4.37l.11,2.07,88.63-2.13-4.49-51.62Z" style="fill:#fafafa"></path><path d="M286.38,55.54l.18,3.31a2.88,2.88,0,1,1,.23,4.37l.18,3.33a2.86,2.86,0,1,1,2.11,5,2.87,2.87,0,0,1-1.88-.59l.18,3.32a2.85,2.85,0,0,1,4.81,1.94,2.86,2.86,0,0,1-2.69,3,2.83,2.83,0,0,1-1.89-.59l.18,3.33a2.84,2.84,0,0,1,1.81-.79A2.88,2.88,0,1,1,288,86.31l.17,3.32a2.87,2.87,0,1,1,2.12,5,2.8,2.8,0,0,1-1.88-.59l.18,3.33a2.79,2.79,0,0,1,1.8-.79,2.88,2.88,0,1,1-1.57,5.16l.11,2.06L377.57,99,375,50.8Z" style="fill:#f5f5f5"></path><path d="M375.5,60.34c0,.14-19.83,1.32-44.29,2.63s-44.31,2.25-44.32,2.11,19.82-1.32,44.29-2.63S375.49,60.19,375.5,60.34Z" style="fill:#e0e0e0"></path><path d="M375.91,68.05c0,.15-19.82,1.32-44.29,2.63s-44.31,2.26-44.32,2.11,19.82-1.32,44.29-2.63S375.9,67.91,375.91,68.05Z" style="fill:#e0e0e0"></path><path d="M376.32,75.77c0,.14-19.82,1.32-44.28,2.63s-44.32,2.25-44.32,2.11,19.81-1.32,44.29-2.63S376.31,75.63,376.32,75.77Z" style="fill:#e0e0e0"></path><path d="M376.73,83.48c0,.15-19.82,1.33-44.28,2.63s-44.31,2.26-44.32,2.11S308,86.9,332.42,85.59,376.73,83.34,376.73,83.48Z" style="fill:#e0e0e0"></path><path d="M377.15,91.2c0,.14-19.83,1.32-44.29,2.63s-44.31,2.25-44.32,2.11,19.82-1.32,44.29-2.63S377.14,91.06,377.15,91.2Z" style="fill:#e0e0e0"></path><rect x="299.74" y="54.84" width="0.5" height="48.29" transform="translate(-3.79 16.14) rotate(-3.06)" style="fill:#e0e0e0"></rect><path d="M309.31,102.67c-.15,0-.84-10.78-1.55-24.09s-1.18-24.12-1-24.13.83,10.78,1.55,24.1S309.45,102.66,309.31,102.67Z" style="fill:#e0e0e0"></path><path d="M293.53,103.52c-.14,0-.84-10.79-1.55-24.1s-1.17-24.12-1-24.13.84,10.78,1.55,24.1S293.68,103.51,293.53,103.52Z" style="fill:#e0e0e0"></path><path d="M318,102.21c-.15,0-.84-10.78-1.55-24.1S315.22,54,315.37,54s.83,10.78,1.55,24.09S318.09,102.2,318,102.21Z" style="fill:#e0e0e0"></path><path d="M326.58,101.75c-.14,0-.83-10.78-1.55-24.1s-1.17-24.12-1-24.13.84,10.78,1.55,24.1S326.73,101.74,326.58,101.75Z" style="fill:#e0e0e0"></path><path d="M335.22,101.29c-.14,0-.83-10.79-1.55-24.1s-1.17-24.12-1-24.13.84,10.78,1.55,24.1S335.37,101.28,335.22,101.29Z" style="fill:#e0e0e0"></path><path d="M343.86,100.82c-.14,0-.84-10.78-1.55-24.09s-1.17-24.12-1-24.13.84,10.78,1.55,24.1S344,100.82,343.86,100.82Z" style="fill:#e0e0e0"></path><path d="M352.5,100.36c-.14,0-.84-10.78-1.55-24.1s-1.17-24.12-1-24.12.84,10.78,1.55,24.1S352.64,100.35,352.5,100.36Z" style="fill:#e0e0e0"></path><path d="M361.14,99.9c-.14,0-.84-10.78-1.55-24.1s-1.17-24.12-1-24.13.84,10.78,1.55,24.1S361.28,99.89,361.14,99.9Z" style="fill:#e0e0e0"></path><path d="M369.78,99.44c-.15,0-.84-10.79-1.55-24.1s-1.18-24.12-1-24.13S368,62,368.75,75.31,369.92,99.43,369.78,99.44Z" style="fill:#e0e0e0"></path><path d="M296.3,60.6a7.74,7.74,0,0,0,2.83,5A5.06,5.06,0,1,0,301,56.43" style="fill:#ebebeb"></path><path d="M296.08,60.58a4,4,0,1,0,3.81-4.24A4,4,0,0,0,296.08,60.58Z" style="fill:#e0e0e0"></path><path d="M293.77,59.09a2.42,2.42,0,1,0,2.29-2.55A2.42,2.42,0,0,0,293.77,59.09Z" style="fill:#e0e0e0"></path><path d="M296,61.33c0-.09.38,0,.89-.21a2.32,2.32,0,0,0,1.42-1.36,2.48,2.48,0,0,0-.21-2c-.26-.47-.55-.69-.51-.76s.42.06.82.55a2.57,2.57,0,0,1,.39,2.36A2.44,2.44,0,0,1,297,61.48C296.37,61.58,296,61.38,296,61.33Z" style="fill:#ebebeb"></path><path d="M298.05,57.48c.07-.13.68.09,1.38-.08s1.16-.62,1.28-.53-.23.81-1.16,1S298,57.59,298.05,57.48Z" style="fill:#ebebeb"></path><path d="M298.67,63.6c-.14,0-.29-.77-.94-1.38s-1.44-.71-1.43-.86.21-.14.56-.1a2.17,2.17,0,0,1,1.23.59,2.13,2.13,0,0,1,.65,1.19C298.8,63.39,298.74,63.6,298.67,63.6Z" style="fill:#ebebeb"></path><path d="M364.41,57.75a7.74,7.74,0,0,0,2.83,5,5.06,5.06,0,1,0,1.86-9.13" style="fill:#f5f5f5"></path><path d="M372.19,56.66A3.9,3.9,0,1,1,368.1,53,3.89,3.89,0,0,1,372.19,56.66Z" style="fill:#e0e0e0"></path><path d="M374.27,55a2.34,2.34,0,1,1-2.46-2.21A2.34,2.34,0,0,1,374.27,55Z" style="fill:#e0e0e0"></path><path d="M372.33,57.37c0,.05-.3.28-.92.25a2.36,2.36,0,0,1-1.92-1.29,2.48,2.48,0,0,1,.14-2.31c.33-.52.7-.66.73-.61s-.21.3-.4.78a2.38,2.38,0,0,0,0,1.91,2.27,2.27,0,0,0,1.5,1.16C372,57.37,372.31,57.29,372.33,57.37Z" style="fill:#ebebeb"></path><path d="M370,53.88c.1.1-.47.68-1.4.58s-1.35-.82-1.22-.89.59.29,1.28.37S369.91,53.76,370,53.88Z" style="fill:#ebebeb"></path><path d="M370,59.83c-.14.05-.34-.9.37-1.76s1.7-.78,1.68-.64-.73.33-1.28,1S370.17,59.83,370,59.83Z" style="fill:#ebebeb"></path><path d="M365.34,86.3l-.53.11c-.35.07-.87.17-1.54.36-1.36.34-3.27,1.11-5.78,2a20.28,20.28,0,0,1-4.32,1A9.15,9.15,0,0,1,348,89a7.09,7.09,0,0,1-2.31-1.87,5.35,5.35,0,0,1-1.16-2.94c-.14-2.25,1-4.41,2.44-6.31a21.54,21.54,0,0,1,2.43-2.76,12.45,12.45,0,0,1,3.08-2.32,3.18,3.18,0,0,1,2.05-.26,2.55,2.55,0,0,1,1.63,1.33,3.54,3.54,0,0,1,.38,2.1,6.06,6.06,0,0,1-.63,2,18.3,18.3,0,0,1-14.29,9.82,15.06,15.06,0,0,1-4.82-.22,10.84,10.84,0,0,1-4.5-2,8.34,8.34,0,0,1-2.81-4.21,11.58,11.58,0,0,1-.26-5.14c.57-3.49,2.58-6.54,4.76-9.29.55-.7,1.12-1.38,1.69-2.07a4.83,4.83,0,0,1,2.16-1.75,2,2,0,0,1,1.5.16,2.69,2.69,0,0,1,1,1.05,4.17,4.17,0,0,1,.31,2.81A28.47,28.47,0,0,1,336.32,77a66.53,66.53,0,0,1-6.58,8.13c-1.17,1.25-2.29,2.52-3.52,3.69A11.07,11.07,0,0,1,322,91.53a5.47,5.47,0,0,1-4.85-.85,9.66,9.66,0,0,1-3-3.83,20.17,20.17,0,0,1-1.6-9.07,22.22,22.22,0,0,1,2.14-8.42,20,20,0,0,1,4.9-6.48,5.76,5.76,0,0,1,1.72-1,3,3,0,0,1,2,0,3.73,3.73,0,0,1,2.25,2.91,9.38,9.38,0,0,1-.18,3.52,21.51,21.51,0,0,1-.9,3.2,26.65,26.65,0,0,1-2.72,5.42,42.86,42.86,0,0,1-6.25,7.41c-3.87,3.65-6.19,5.45-6.19,5.45s.12-.13.39-.37l1.18-1.07c1-.93,2.59-2.3,4.48-4.16a43.17,43.17,0,0,0,6.14-7.42,26.19,26.19,0,0,0,2.66-5.38,20.82,20.82,0,0,0,.87-3.15,9.15,9.15,0,0,0,.16-3.38,3.38,3.38,0,0,0-2-2.62,3.52,3.52,0,0,0-3.31,1,19.66,19.66,0,0,0-4.76,6.34A21.68,21.68,0,0,0,313,77.8a19.54,19.54,0,0,0,1.58,8.85,9.37,9.37,0,0,0,2.8,3.64,5,5,0,0,0,4.42.76,10.69,10.69,0,0,0,4.05-2.63c1.19-1.15,2.32-2.43,3.48-3.67a67.69,67.69,0,0,0,6.53-8.07A28,28,0,0,0,340.14,67a3.67,3.67,0,0,0-.24-2.46,1.74,1.74,0,0,0-1.95-1,4.34,4.34,0,0,0-1.9,1.59c-.57.68-1.14,1.36-1.68,2-2.17,2.73-4.12,5.71-4.67,9.05a11.17,11.17,0,0,0,.24,4.92,7.87,7.87,0,0,0,2.64,4,12.49,12.49,0,0,0,9,2.19,17.9,17.9,0,0,0,13.95-9.54,4.05,4.05,0,0,0,.27-3.75,2.16,2.16,0,0,0-1.36-1.14,2.8,2.8,0,0,0-1.79.24,12.22,12.22,0,0,0-3,2.23,21.5,21.5,0,0,0-2.39,2.7c-1.4,1.86-2.53,4-2.41,6.06a5.7,5.7,0,0,0,3.27,4.58,8.92,8.92,0,0,0,5,.83,20.14,20.14,0,0,0,4.28-1c2.51-.85,4.45-1.59,5.82-1.9A11.65,11.65,0,0,1,365.34,86.3Z" style="fill:#e0e0e0"></path></g><g id="freepik--Typewriter--inject-23"><rect x="50.06" y="240.4" width="382.14" height="22.22" style="fill:#455a64"></rect><rect x="36.05" y="232.7" width="14.01" height="36.98" style="fill:#263238"></rect><path d="M50.06,261.45a45.2,45.2,0,0,1-6.91.26,45.1,45.1,0,0,1-6.91-.26,46.68,46.68,0,0,1,6.91-.26A46.79,46.79,0,0,1,50.06,261.45Z" style="fill:#455a64"></path><path d="M50.06,257.45a45.2,45.2,0,0,1-6.91.26,45.1,45.1,0,0,1-6.91-.26,46.68,46.68,0,0,1,6.91-.26A46.79,46.79,0,0,1,50.06,257.45Z" style="fill:#455a64"></path><path d="M50.06,253.45a45.2,45.2,0,0,1-6.91.26,45.1,45.1,0,0,1-6.91-.26,46.68,46.68,0,0,1,6.91-.26A46.79,46.79,0,0,1,50.06,253.45Z" style="fill:#455a64"></path><path d="M50.06,249.45a46.79,46.79,0,0,1-6.91.26,46.68,46.68,0,0,1-6.91-.26,46.68,46.68,0,0,1,6.91-.26A46.79,46.79,0,0,1,50.06,249.45Z" style="fill:#455a64"></path><path d="M50.06,245.45a46.79,46.79,0,0,1-6.91.26,46.68,46.68,0,0,1-6.91-.26,46.68,46.68,0,0,1,6.91-.26A46.79,46.79,0,0,1,50.06,245.45Z" style="fill:#455a64"></path><path d="M50.06,241.45a46.79,46.79,0,0,1-6.91.26,46.68,46.68,0,0,1-6.91-.26,45.1,45.1,0,0,1,6.91-.26A45.2,45.2,0,0,1,50.06,241.45Z" style="fill:#455a64"></path><path d="M50.06,237.45a46.79,46.79,0,0,1-6.91.26,46.68,46.68,0,0,1-6.91-.26,45.1,45.1,0,0,1,6.91-.26A45.2,45.2,0,0,1,50.06,237.45Z" style="fill:#455a64"></path><path d="M50.06,265.63a46.79,46.79,0,0,1-6.91.26,46.68,46.68,0,0,1-6.91-.26,45.1,45.1,0,0,1,6.91-.26A45.2,45.2,0,0,1,50.06,265.63Z" style="fill:#455a64"></path><rect x="429.22" y="232.7" width="14.01" height="36.98" style="fill:#263238"></rect><path d="M443.23,261.45a92,92,0,0,1-13.82,0,92,92,0,0,1,13.82,0Z" style="fill:#455a64"></path><path d="M443.23,257.45a92,92,0,0,1-13.82,0,92,92,0,0,1,13.82,0Z" style="fill:#455a64"></path><path d="M443.23,253.45a92,92,0,0,1-13.82,0,92,92,0,0,1,13.82,0Z" style="fill:#455a64"></path><path d="M443.23,249.45a92,92,0,0,1-13.82,0,92,92,0,0,1,13.82,0Z" style="fill:#455a64"></path><path d="M443.23,245.45a92,92,0,0,1-13.82,0,92,92,0,0,1,13.82,0Z" style="fill:#455a64"></path><path d="M443.23,241.45a92,92,0,0,1-13.82,0,92,92,0,0,1,13.82,0Z" style="fill:#455a64"></path><path d="M443.23,237.45a92,92,0,0,1-13.82,0,92,92,0,0,1,13.82,0Z" style="fill:#455a64"></path><path d="M443.23,265.63a92,92,0,0,1-13.82,0,92,92,0,0,1,13.82,0Z" style="fill:#455a64"></path><rect x="80.9" y="217.69" width="317.47" height="8.68" style="fill:#e0e0e0"></rect><rect x="113.56" y="121.26" width="252.15" height="153.53" style="fill:#fff"></rect><path d="M365.71,274.79c0-1.64-.07-59.55-.2-153.53l.2.2-252.13.06h0l.26-.26c0,54.41,0,106.31,0,153.53l-.25-.24,252.15.24L113.56,275h-.24v-.24c0-47.22,0-99.12,0-153.53V121h.28l252.13.06h.21v.2C365.79,215.24,365.72,273.15,365.71,274.79Z" style="fill:#263238"></path><path d="M74.35,243.77V227.11h32.17v8.33h97.54a8.36,8.36,0,0,1,8.35,8.37v21h18.43v-21a6.52,6.52,0,0,1,6.51-6.52h0a6.51,6.51,0,0,1,6.5,6.52v22H263V244.87a10.5,10.5,0,0,1,10.49-10.51h94.68v-9.42h36.14v52.5h-330Z" style="fill:#263238"></path><polygon points="58.36 442.56 58.78 466.89 419.94 466.89 420.55 442.56 404.91 339.63 404.36 259.3 73.92 258.32 73.92 343.32 58.36 442.56" style="fill:#407BFF"></polygon><g style="opacity:0.4"><polygon points="88.92 346.73 78.42 427.49 395.07 427.49 385.72 346.73 88.92 346.73"></polygon></g><rect x="65.78" y="306.17" width="345.05" height="8.44" rx="4.02" style="fill:#e0e0e0"></rect><rect x="302.21" y="373.68" width="3.59" height="53.81" style="fill:#e0e0e0"></rect><path d="M314,374.29a20.41,20.41,0,0,1-19.92,0v-7.91H314Z" style="fill:#263238"></path><path d="M314.23,366.91c0,1.74-4.58,3.16-10.23,3.16s-10.23-1.42-10.23-3.16,4.58-3.15,10.23-3.15S314.23,365.17,314.23,366.91Z" style="fill:#455a64"></path><rect x="103.76" y="357.13" width="3.59" height="70.09" style="fill:#e0e0e0"></rect><path d="M115.52,357.74a20.41,20.41,0,0,1-19.92,0v-7.91h19.92Z" style="fill:#263238"></path><path d="M115.79,350.36c0,1.74-4.58,3.16-10.23,3.16s-10.23-1.42-10.23-3.16,4.58-3.15,10.23-3.15S115.79,348.62,115.79,350.36Z" style="fill:#455a64"></path><rect x="117.2" y="374.15" width="3.59" height="53.81" style="fill:#e0e0e0"></rect><path d="M129,374.77a20.41,20.41,0,0,1-19.92,0v-7.91H129Z" style="fill:#263238"></path><ellipse cx="119" cy="367.39" rx="10.23" ry="3.15" style="fill:#455a64"></ellipse><path d="M115.52,390.57a20.46,20.46,0,0,1-19.92,0v-7.91h19.92Z" style="fill:#263238"></path><path d="M115.79,383.19c0,1.74-4.58,3.15-10.23,3.15s-10.23-1.41-10.23-3.15S99.91,380,105.56,380,115.79,381.44,115.79,383.19Z" style="fill:#455a64"></path><rect x="142.84" y="374.15" width="3.59" height="53.81" style="fill:#e0e0e0"></rect><path d="M154.59,374.77a20.39,20.39,0,0,1-19.91,0v-7.91h19.91Z" style="fill:#263238"></path><ellipse cx="144.63" cy="367.39" rx="10.23" ry="3.15" style="fill:#455a64"></ellipse><rect x="169.69" y="374.15" width="3.59" height="53.81" style="fill:#e0e0e0"></rect><path d="M181.44,374.77a20.41,20.41,0,0,1-19.92,0v-7.91h19.92Z" style="fill:#263238"></path><ellipse cx="171.48" cy="367.39" rx="10.23" ry="3.15" style="fill:#455a64"></ellipse><rect x="196.15" y="374.15" width="3.59" height="53.81" style="fill:#e0e0e0"></rect><path d="M207.9,374.77a20.39,20.39,0,0,1-19.91,0v-7.91H207.9Z" style="fill:#263238"></path><ellipse cx="197.95" cy="367.39" rx="10.23" ry="3.15" style="fill:#455a64"></ellipse><rect x="222.31" y="374.15" width="3.59" height="53.81" style="fill:#e0e0e0"></rect><path d="M234.06,374.77a20.39,20.39,0,0,1-19.91,0v-7.91h19.91Z" style="fill:#263238"></path><ellipse cx="224.1" cy="367.39" rx="10.23" ry="3.15" style="fill:#455a64"></ellipse><rect x="248.89" y="374.15" width="3.59" height="53.81" style="fill:#e0e0e0"></rect><path d="M260.64,374.77a20.39,20.39,0,0,1-19.91,0v-7.91h19.91Z" style="fill:#263238"></path><ellipse cx="250.69" cy="367.39" rx="10.23" ry="3.15" style="fill:#455a64"></ellipse><rect x="275.62" y="374.15" width="3.59" height="53.81" style="fill:#e0e0e0"></rect><path d="M287.38,374.77a20.41,20.41,0,0,1-19.92,0v-7.91h19.92Z" style="fill:#263238"></path><ellipse cx="277.42" cy="367.39" rx="10.23" ry="3.15" style="fill:#455a64"></ellipse><rect x="329.09" y="374.15" width="3.59" height="53.81" style="fill:#e0e0e0"></rect><path d="M340.84,374.77a20.39,20.39,0,0,1-19.91,0v-7.91h19.91Z" style="fill:#263238"></path><ellipse cx="330.88" cy="367.39" rx="10.23" ry="3.15" style="fill:#455a64"></ellipse><rect x="356.12" y="374.15" width="3.59" height="53.81" style="fill:#e0e0e0"></rect><path d="M367.87,374.77a20.39,20.39,0,0,1-19.91,0v-7.91h19.91Z" style="fill:#263238"></path><ellipse cx="357.91" cy="367.39" rx="10.23" ry="3.15" style="fill:#455a64"></ellipse><rect x="130.26" y="357.13" width="3.59" height="70.09" style="fill:#e0e0e0"></rect><path d="M142,357.74a20.39,20.39,0,0,1-19.91,0v-7.91H142Z" style="fill:#263238"></path><path d="M142.29,350.36c0,1.74-4.58,3.16-10.23,3.16s-10.23-1.42-10.23-3.16,4.58-3.15,10.23-3.15S142.29,348.62,142.29,350.36Z" style="fill:#455a64"></path><rect x="156.76" y="357.13" width="3.59" height="70.09" style="fill:#e0e0e0"></rect><path d="M168.51,357.74a20.39,20.39,0,0,1-19.91,0v-7.91h19.91Z" style="fill:#263238"></path><path d="M168.78,350.36c0,1.74-4.58,3.16-10.23,3.16s-10.23-1.42-10.23-3.16,4.58-3.15,10.23-3.15S168.78,348.62,168.78,350.36Z" style="fill:#455a64"></path><rect x="183.26" y="357.13" width="3.59" height="70.09" style="fill:#e0e0e0"></rect><path d="M195,357.74a20.39,20.39,0,0,1-19.91,0v-7.91H195Z" style="fill:#263238"></path><path d="M195.28,350.36c0,1.74-4.58,3.16-10.23,3.16s-10.23-1.42-10.23-3.16,4.58-3.15,10.23-3.15S195.28,348.62,195.28,350.36Z" style="fill:#455a64"></path><rect x="209.76" y="357.13" width="3.59" height="70.09" style="fill:#e0e0e0"></rect><path d="M221.51,357.74a20.41,20.41,0,0,1-19.92,0v-7.91h19.92Z" style="fill:#263238"></path><path d="M221.78,350.36c0,1.74-4.58,3.16-10.23,3.16s-10.23-1.42-10.23-3.16,4.58-3.15,10.23-3.15S221.78,348.62,221.78,350.36Z" style="fill:#455a64"></path><rect x="236.25" y="357.13" width="3.59" height="70.09" style="fill:#e0e0e0"></rect><path d="M248,357.74a20.41,20.41,0,0,1-19.92,0v-7.91H248Z" style="fill:#263238"></path><path d="M248.28,350.36c0,1.74-4.58,3.16-10.23,3.16s-10.23-1.42-10.23-3.16,4.58-3.15,10.23-3.15S248.28,348.62,248.28,350.36Z" style="fill:#455a64"></path><rect x="262.75" y="357.13" width="3.59" height="70.09" style="fill:#e0e0e0"></rect><path d="M274.5,357.74a20.39,20.39,0,0,1-19.91,0v-7.91H274.5Z" style="fill:#263238"></path><path d="M274.78,350.36c0,1.74-4.58,3.16-10.23,3.16s-10.23-1.42-10.23-3.16,4.58-3.15,10.23-3.15S274.78,348.62,274.78,350.36Z" style="fill:#455a64"></path><rect x="289.25" y="357.13" width="3.59" height="70.09" style="fill:#e0e0e0"></rect><path d="M301,357.74a20.39,20.39,0,0,1-19.91,0v-7.91H301Z" style="fill:#263238"></path><path d="M301.27,350.36c0,1.74-4.58,3.16-10.23,3.16s-10.23-1.42-10.23-3.16,4.58-3.15,10.23-3.15S301.27,348.62,301.27,350.36Z" style="fill:#455a64"></path><rect x="315.75" y="357.13" width="3.59" height="70.09" style="fill:#e0e0e0"></rect><path d="M327.5,357.74a20.39,20.39,0,0,1-19.91,0v-7.91H327.5Z" style="fill:#263238"></path><path d="M327.77,350.36c0,1.74-4.58,3.16-10.23,3.16s-10.23-1.42-10.23-3.16,4.58-3.15,10.23-3.15S327.77,348.62,327.77,350.36Z" style="fill:#455a64"></path><rect x="342.25" y="357.13" width="3.59" height="70.09" style="fill:#e0e0e0"></rect><path d="M354,357.74a20.41,20.41,0,0,1-19.92,0v-7.91H354Z" style="fill:#263238"></path><path d="M354.27,350.36c0,1.74-4.58,3.16-10.23,3.16s-10.23-1.42-10.23-3.16,4.58-3.15,10.23-3.15S354.27,348.62,354.27,350.36Z" style="fill:#455a64"></path><rect x="368.74" y="357.13" width="3.59" height="70.09" style="fill:#e0e0e0"></rect><path d="M380.5,357.74a20.41,20.41,0,0,1-19.92,0v-7.91H380.5Z" style="fill:#263238"></path><path d="M380.77,350.36c0,1.74-4.58,3.16-10.23,3.16s-10.23-1.42-10.23-3.16,4.58-3.15,10.23-3.15S380.77,348.62,380.77,350.36Z" style="fill:#455a64"></path><path d="M142.13,405.9a20.41,20.41,0,0,1-19.92,0V398h19.92Z" style="fill:#263238"></path><path d="M142.4,398.52c0,1.74-4.58,3.15-10.23,3.15s-10.23-1.41-10.23-3.15,4.58-3.16,10.23-3.16S142.4,396.78,142.4,398.52Z" style="fill:#455a64"></path><path d="M128.68,419.54a20.39,20.39,0,0,1-19.91,0v-7.91h19.91Z" style="fill:#263238"></path><ellipse cx="118.73" cy="412.16" rx="10.23" ry="3.15" style="fill:#455a64"></ellipse><path d="M154.67,419.29a20.46,20.46,0,0,1-19.92,0v-7.92h19.92Z" style="fill:#263238"></path><path d="M154.94,411.9c0,1.74-4.58,3.16-10.23,3.16s-10.23-1.42-10.23-3.16,4.58-3.15,10.23-3.15S154.94,410.16,154.94,411.9Z" style="fill:#455a64"></path><path d="M180.65,406.41a20.39,20.39,0,0,1-19.91,0V398.5h19.91Z" style="fill:#263238"></path><path d="M180.93,399c0,1.74-4.58,3.15-10.23,3.15s-10.23-1.41-10.23-3.15,4.58-3.15,10.23-3.15S180.93,397.29,180.93,399Z" style="fill:#455a64"></path><path d="M207.9,406.16a20.44,20.44,0,0,1-19.91,0v-7.91H207.9Z" style="fill:#263238"></path><path d="M208.18,398.77c0,1.75-4.58,3.16-10.23,3.16s-10.23-1.41-10.23-3.16,4.58-3.15,10.23-3.15S208.18,397,208.18,398.77Z" style="fill:#455a64"></path><path d="M234.06,406.16a20.44,20.44,0,0,1-19.91,0v-7.91h19.91Z" style="fill:#263238"></path><path d="M234.33,398.77c0,1.75-4.58,3.16-10.23,3.16s-10.23-1.41-10.23-3.16,4.58-3.15,10.23-3.15S234.33,397,234.33,398.77Z" style="fill:#455a64"></path><path d="M261.09,406.16a20.44,20.44,0,0,1-19.91,0v-7.91h19.91Z" style="fill:#263238"></path><path d="M261.36,398.77c0,1.75-4.58,3.16-10.23,3.16s-10.23-1.41-10.23-3.16,4.58-3.15,10.23-3.15S261.36,397,261.36,398.77Z" style="fill:#455a64"></path><path d="M287.53,419.54a20.41,20.41,0,0,1-19.92,0v-7.91h19.92Z" style="fill:#263238"></path><ellipse cx="277.57" cy="412.16" rx="10.23" ry="3.15" style="fill:#455a64"></ellipse><path d="M314,406.16a20.46,20.46,0,0,1-19.92,0v-7.91H314Z" style="fill:#263238"></path><path d="M314.23,398.77c0,1.75-4.58,3.16-10.23,3.16s-10.23-1.41-10.23-3.16,4.58-3.15,10.23-3.15S314.23,397,314.23,398.77Z" style="fill:#455a64"></path><path d="M340.84,416.13a20.39,20.39,0,0,1-19.91,0v-7.91h19.91Z" style="fill:#263238"></path><path d="M341.11,408.75c0,1.74-4.58,3.15-10.23,3.15s-10.23-1.41-10.23-3.15,4.58-3.16,10.23-3.16S341.11,407,341.11,408.75Z" style="fill:#455a64"></path><path d="M369.67,422.7a20.46,20.46,0,0,1-19.92,0v-7.92h19.92Z" style="fill:#263238"></path><path d="M369.94,415.31c0,1.74-4.58,3.16-10.23,3.16s-10.23-1.42-10.23-3.16,4.58-3.15,10.23-3.15S369.94,413.57,369.94,415.31Z" style="fill:#455a64"></path><path d="M168.74,390.57a20.44,20.44,0,0,1-19.91,0v-7.91h19.91Z" style="fill:#263238"></path><path d="M169,383.19c0,1.74-4.58,3.15-10.23,3.15s-10.23-1.41-10.23-3.15,4.58-3.16,10.23-3.16S169,381.44,169,383.19Z" style="fill:#455a64"></path><path d="M195.35,390.57a20.44,20.44,0,0,1-19.91,0v-7.91h19.91Z" style="fill:#263238"></path><path d="M195.62,383.19c0,1.74-4.58,3.15-10.23,3.15s-10.23-1.41-10.23-3.15,4.58-3.16,10.23-3.16S195.62,381.44,195.62,383.19Z" style="fill:#455a64"></path><path d="M221.51,390.57a20.46,20.46,0,0,1-19.92,0v-7.91h19.92Z" style="fill:#263238"></path><path d="M221.78,383.19c0,1.74-4.58,3.15-10.23,3.15s-10.23-1.41-10.23-3.15S205.9,380,211.55,380,221.78,381.44,221.78,383.19Z" style="fill:#455a64"></path><path d="M247.05,390.57a20.46,20.46,0,0,1-19.92,0v-7.91h19.92Z" style="fill:#263238"></path><path d="M247.32,383.19c0,1.74-4.58,3.15-10.23,3.15s-10.23-1.41-10.23-3.15,4.58-3.16,10.23-3.16S247.32,381.44,247.32,383.19Z" style="fill:#455a64"></path><path d="M273.63,390.57a20.46,20.46,0,0,1-19.92,0v-7.91h19.92Z" style="fill:#263238"></path><path d="M273.9,383.19c0,1.74-4.58,3.15-10.23,3.15s-10.23-1.41-10.23-3.15S258,380,263.67,380,273.9,381.44,273.9,383.19Z" style="fill:#455a64"></path><path d="M300.56,390.57a20.44,20.44,0,0,1-19.91,0v-7.91h19.91Z" style="fill:#263238"></path><path d="M300.84,383.19c0,1.74-4.58,3.15-10.23,3.15s-10.23-1.41-10.23-3.15S285,380,290.61,380,300.84,381.44,300.84,383.19Z" style="fill:#455a64"></path><path d="M327.71,390.57a20.44,20.44,0,0,1-19.91,0v-7.91h19.91Z" style="fill:#263238"></path><path d="M328,383.19c0,1.74-4.58,3.15-10.23,3.15s-10.23-1.41-10.23-3.15,4.58-3.16,10.23-3.16S328,381.44,328,383.19Z" style="fill:#455a64"></path><path d="M354,399.85a20.46,20.46,0,0,1-19.92,0v-7.91H354Z" style="fill:#263238"></path><path d="M354.27,392.47c0,1.74-4.58,3.15-10.23,3.15s-10.23-1.41-10.23-3.15,4.58-3.16,10.23-3.16S354.27,390.72,354.27,392.47Z" style="fill:#455a64"></path><path d="M380.54,390.57a20.46,20.46,0,0,1-19.92,0v-7.91h19.92Z" style="fill:#263238"></path><path d="M380.81,383.19c0,1.74-4.58,3.15-10.23,3.15s-10.23-1.41-10.23-3.15,4.58-3.16,10.23-3.16S380.81,381.44,380.81,383.19Z" style="fill:#455a64"></path><rect x="215.24" y="281.11" width="49.25" height="7.22" style="fill:#fff"></rect><g style="opacity:0.4"><polygon points="73.79 314.61 404.8 323.46 404.74 314.61 73.79 314.61"></polygon></g><path d="M419.26,442.56c0,.14-80.51.26-179.8.26s-179.81-.12-179.81-.26,80.49-.26,179.81-.26S419.26,442.42,419.26,442.56Z" style="fill:#263238"></path><path d="M88.92,346.73s0,.5-.16,1.46-.29,2.4-.52,4.26c-.48,3.74-1.17,9.23-2.06,16.25-1.8,14.06-4.4,34.25-7.55,58.81l-.21-.23,117.6,0,140.75.07,42.66.09,11.6,0,3,0,1,0s-.35,0-1,0l-3,0-11.6,0-42.66.08L196,427.75l-117.6-.05h-.24l0-.24c3.23-24.55,5.89-44.73,7.74-58.79.93-7,1.66-12.5,2.16-16.24.26-1.85.45-3.28.59-4.25S88.92,346.73,88.92,346.73Z" style="fill:#263238"></path><path d="M274.53,167.4c0,.15-15.77.26-35.23.26s-35.24-.11-35.24-.26,15.78-.26,35.24-.26S274.53,167.26,274.53,167.4Z" style="fill:#263238"></path><path d="M340.28,191.13c0,.14-45.06.26-100.64.26S139,191.27,139,191.13s45.05-.26,100.64-.26S340.28,191,340.28,191.13Z" style="fill:#263238"></path><path d="M340.28,205.63c0,.15-45.06.26-100.64.26S139,205.78,139,205.63s45.05-.26,100.64-.26S340.28,205.49,340.28,205.63Z" style="fill:#263238"></path><path d="M340.28,220.14c0,.15-45.06.26-100.64.26S139,220.29,139,220.14s45.05-.26,100.64-.26S340.28,220,340.28,220.14Z" style="fill:#263238"></path><path d="M404.35,338.41c0,.14-73.9.26-165,.26s-165.06-.12-165.06-.26,73.88-.26,165.06-.26S404.35,338.26,404.35,338.41Z" style="fill:#263238"></path><path d="M250.85,232c0,.14-10.27.26-22.93.26S205,232.16,205,232s10.27-.26,22.93-.26S250.85,231.88,250.85,232Z" style="fill:#263238"></path></g><g id="freepik--Character--inject-23"><path d="M350.81,91.93a5.86,5.86,0,0,0-4.52-4.45,11.6,11.6,0,0,0-6.6.66,15.9,15.9,0,0,0-6.35,4,9.54,9.54,0,0,0-2.68,6.85c.12,2.36,1.3,4.72.64,7a8.12,8.12,0,0,1-3.42,4,14.46,14.46,0,0,0-4,3.51c-1,1.5-1.15,3.73.18,4.94,1.18,1.07,3.3,1.19,3.8,2.71.31.94-.21,1.92-.5,2.86a7.48,7.48,0,0,0,1,6,12.67,12.67,0,0,0,4.61,4.17c3.19,1.81,7.18,2.65,10.55,1.21a10.17,10.17,0,0,0,4.16-3.42,16.08,16.08,0,0,0,2.75-8.51,48,48,0,0,0-.58-9" style="fill:#263238"></path><path d="M352,127.82a9.3,9.3,0,0,1-11.76-9.17c.06-2.69,1.28-5.43.45-8-.58-1.76-2.05-3.13-2.55-4.91-.73-2.66.87-5.35,2.41-7.65A18.15,18.15,0,0,1,343.89,94a6.09,6.09,0,0,1,4.93-1.46" style="fill:#263238"></path><path d="M376.81,92.8c-.15,2,1.19,3.85,2.55,5.37s2.85,3.12,3.15,5.13c.51,3.58-3,6.9-2.26,10.44.38,1.89,1.94,3.42,2.21,5.33a6.61,6.61,0,0,1-1.95,5.08c-1.23,1.41-2.73,2.59-3.82,4.11,0,0-2.27,3.72-9.25,1.34" style="fill:#263238"></path><path d="M345.57,95.91c-.05-1.84,1.66-3.27,3.37-3.94s3.62-.93,5.15-2a25.17,25.17,0,0,0,3.42-3.5,11.35,11.35,0,0,1,19.09,5.21c.65,2.62.2,5.73-1.86,7.47-2.41,2-6,1.58-9,1s-6.56-1.25-9.13.55c-1.55,1.09-2.44,2.87-3.39,4.51s-2.13,3.31-3.93,3.93-4.22-.45-4.29-2.34" style="fill:#263238"></path><path d="M352.84,96.29a3.08,3.08,0,0,0-2.75,3.13h0l1.84,41.66c.08,4.92,7.27,7.68,12.54,7.56h0c5.31-.12,5.49-2.73,5.55-7.41.11-7.82.1-10.76.11-10.71s6.72-1.13,8.09-9.91c.68-4.36.45-11.51.07-17.35-.35-5.27-3.85-11.71-9.09-11.15Z" style="fill:#ffbe9d"></path><path d="M376.12,108.94a1.12,1.12,0,0,1-1.08,1.13,1.06,1.06,0,0,1-1.16-1,1.13,1.13,0,0,1,1.08-1.14A1.08,1.08,0,0,1,376.12,108.94Z" style="fill:#263238"></path><path d="M376.74,106.41c-.14.15-1-.48-2.2-.48s-2.1.62-2.23.47.08-.33.47-.61a3.11,3.11,0,0,1,1.78-.56,3,3,0,0,1,1.75.56C376.69,106.08,376.81,106.34,376.74,106.41Z" style="fill:#263238"></path><path d="M364.87,109.24a1.12,1.12,0,0,1-1.08,1.14,1.08,1.08,0,0,1-1.16-1,1.12,1.12,0,0,1,1.08-1.14A1.07,1.07,0,0,1,364.87,109.24Z" style="fill:#263238"></path><path d="M364.85,107.23c-.14.15-1-.48-2.21-.48s-2.09.62-2.22.47.07-.33.46-.61a3.11,3.11,0,0,1,1.78-.56,3,3,0,0,1,1.76.57C364.79,106.9,364.92,107.16,364.85,107.23Z" style="fill:#263238"></path><path d="M369.26,116.2a8,8,0,0,1,2-.36c.31,0,.61-.1.66-.31a1.59,1.59,0,0,0-.21-.91l-.92-2.36a40.69,40.69,0,0,1-2.07-6.15,40.6,40.6,0,0,1,2.56,6l.88,2.37a1.75,1.75,0,0,1,.16,1.21.81.81,0,0,1-.5.46,2.15,2.15,0,0,1-.53.07A7.81,7.81,0,0,1,369.26,116.2Z" style="fill:#263238"></path><path d="M370.13,130.52a22.33,22.33,0,0,1-11.75-3.11s3,6,11.75,5.18Z" style="fill:#eb996e"></path><path d="M365.39,105.11c-.12.33-1.33.18-2.75.35s-2.57.56-2.76.27.12-.45.58-.77a4.64,4.64,0,0,1,2-.72,4.5,4.5,0,0,1,2.15.25C365.18,104.7,365.44,105,365.39,105.11Z" style="fill:#263238"></path><path d="M376.29,103.48c-.21.27-1.05,0-2.05,0s-1.85.19-2.05-.1c-.08-.14.05-.42.42-.68a2.86,2.86,0,0,1,1.67-.45,2.82,2.82,0,0,1,1.63.55C376.27,103.06,376.38,103.34,376.29,103.48Z" style="fill:#263238"></path><path d="M346.72,125.14a7.78,7.78,0,0,0,9.26-8.61c-.27-2.16-1.43-4.35-.68-6.39,1-2.69,4.76-3.52,5.76-6.21.59-1.56.06-3.39.72-4.92a5.88,5.88,0,0,1,3.62-2.81,15.09,15.09,0,0,0,4.29-1.86c1.24-1,2-2.78,1.21-4.13a83.12,83.12,0,0,0-19.16,4.65A7.46,7.46,0,0,0,348,97.31c-.9,1.35-.85,3.09-.78,4.7q.56,11.82,1.1,23.63" style="fill:#263238"></path><path d="M342.08,96.65a.66.66,0,0,0-.14.35,1.35,1.35,0,0,0,.34,1.06,2.2,2.2,0,0,0,1.57.79,5.12,5.12,0,0,0,2.22-.66,6.14,6.14,0,0,1,2.56-.76,13.55,13.55,0,0,1,3.09.28,21.16,21.16,0,0,0,3.5.45,5,5,0,0,0,3.6-1.31,10.4,10.4,0,0,0,2.06-3.2,15.7,15.7,0,0,1,1.68-3,4.91,4.91,0,0,1,5.06-1.85,5.12,5.12,0,0,1,3.05,2.26c.49.79.6,1.31.65,1.3a1.45,1.45,0,0,0-.07-.38,4.57,4.57,0,0,0-.43-1,5,5,0,0,0-5.94-2.43,5.29,5.29,0,0,0-2.65,1.85,16.42,16.42,0,0,0-1.75,3.07,10.14,10.14,0,0,1-2,3.07,4.65,4.65,0,0,1-3.29,1.2,21.3,21.3,0,0,1-3.43-.42,13.53,13.53,0,0,0-3.19-.25,6.42,6.42,0,0,0-2.67.85,5.12,5.12,0,0,1-2.08.7,2,2,0,0,1-1.44-.66A1.26,1.26,0,0,1,342,97C342,96.77,342.11,96.65,342.08,96.65Z" style="fill:#455a64"></path><path d="M341.1,97.48a17.2,17.2,0,0,1,4.15-3.66,17.53,17.53,0,0,1,5.26-1.74,4.18,4.18,0,0,0-1.67,0A10.78,10.78,0,0,0,345,93.43,10.58,10.58,0,0,0,342,96.05,4,4,0,0,0,341.1,97.48Z" style="fill:#407BFF"></path><path d="M350.94,91.63a.92.92,0,0,0,.12.25,2.72,2.72,0,0,0,.57.6,3.87,3.87,0,0,0,2.9.65,7.33,7.33,0,0,0,3.8-2.27,20,20,0,0,1,3.9-3.56,6.92,6.92,0,0,1,5-.64,6.59,6.59,0,0,1,3.51,2.28,7.08,7.08,0,0,1,1.34,2.55c.19.66.23,1.05.27,1a.74.74,0,0,0,0-.28,4.47,4.47,0,0,0-.11-.8A6.7,6.7,0,0,0,371,88.74a6.82,6.82,0,0,0-3.66-2.48,7.18,7.18,0,0,0-5.35.65,19.43,19.43,0,0,0-4,3.66,7.1,7.1,0,0,1-3.55,2.24,3.76,3.76,0,0,1-2.75-.47A5.94,5.94,0,0,1,350.94,91.63Z" style="fill:#455a64"></path><path d="M351.34,128.9s-.13.06-.39.11a6.62,6.62,0,0,1-1.15.12,9,9,0,0,1-4.15-.94,9.6,9.6,0,0,1-4.42-4.47,11,11,0,0,1-.75-7.64,21.63,21.63,0,0,0,.78-3.84,6.16,6.16,0,0,0-.87-3.41,12.41,12.41,0,0,1-1.36-3.1,7.38,7.38,0,0,1-.09-3,7.81,7.81,0,0,1,1.82-3.84,5.73,5.73,0,0,1,.84-.8,1.24,1.24,0,0,1,.34-.22s-.42.37-1,1.15a8.06,8.06,0,0,0-1.6,3.77,6.94,6.94,0,0,0,.14,2.81,12.31,12.31,0,0,0,1.36,3,8.73,8.73,0,0,1,.74,1.7,5.82,5.82,0,0,1,.21,2,20.64,20.64,0,0,1-.77,3.94,10.72,10.72,0,0,0,.68,7.32,9.42,9.42,0,0,0,8.13,5.41C350.79,129,351.34,128.86,351.34,128.9Z" style="fill:#455a64"></path><path d="M335.81,90.07a2.92,2.92,0,0,1,1.5-.78,5.88,5.88,0,0,1,6.94,3.19,3,3,0,0,1,.39,1.64c-.09,0-.22-.61-.72-1.47a6.06,6.06,0,0,0-6.53-3C336.41,89.84,335.85,90.14,335.81,90.07Z" style="fill:#455a64"></path><path d="M342.29,95.6s0-.2,0-.57a2.91,2.91,0,0,0-.39-1.54,4.25,4.25,0,0,0-1.81-1.71,3.83,3.83,0,0,0-3.21-.08,5.9,5.9,0,0,0-2.87,2.75,8.77,8.77,0,0,0-.89,4.54,30.25,30.25,0,0,0,.82,5.2,21.69,21.69,0,0,1,.67,5.71,17.09,17.09,0,0,1-1.48,5.57,47.31,47.31,0,0,0-1.91,4.93,10.9,10.9,0,0,0-.4,4.66,13.75,13.75,0,0,0,1.22,3.92,31.81,31.81,0,0,0,3.22,5.1l1,1.31a3.09,3.09,0,0,1,.33.48s-.16-.13-.41-.41-.61-.7-1.06-1.26a27.92,27.92,0,0,1-3.39-5.06,13.66,13.66,0,0,1-1.31-4,11,11,0,0,1,.36-4.85,47.37,47.37,0,0,1,1.9-5,17,17,0,0,0,1.43-5.4c.16-3.85-1.4-7.41-1.45-10.87a9.21,9.21,0,0,1,1-4.77,6.3,6.3,0,0,1,3.11-2.88,4.13,4.13,0,0,1,3.48.16,4.34,4.34,0,0,1,1.86,1.88,2.91,2.91,0,0,1,.32,1.64A1.71,1.71,0,0,1,342.29,95.6Z" style="fill:#455a64"></path><path d="M369.82,120a5.89,5.89,0,0,1-.75,1.48,2,2,0,0,1-1.4.81,1.78,1.78,0,0,1-1.48-.82,2.78,2.78,0,0,1-.42-1.69c0-.53.27-1.17.8-1.23a1.2,1.2,0,0,1,.64.14l2.79,1.13" style="fill:#eb996e"></path><path d="M368.71,122.25a3.92,3.92,0,0,1-1.49-.18,2.11,2.11,0,0,1-1.12-1,2.28,2.28,0,0,1,0-1.83,1.84,1.84,0,0,1,.24-.41c.11-.12.09-.11.21-.1a4.67,4.67,0,0,1,.45.18l.46.19,1.59.62a5.45,5.45,0,0,0,1.52.46,4.81,4.81,0,0,0-1.38-.79l-1.55-.72-.45-.2a5.31,5.31,0,0,0-.51-.21.67.67,0,0,0-.42,0,.76.76,0,0,0-.3.25,2,2,0,0,0-.32.53,2.62,2.62,0,0,0,.09,2.23,2.38,2.38,0,0,0,1.41,1.14,2.21,2.21,0,0,0,1.21,0C368.59,122.38,368.72,122.28,368.71,122.25Z" style="fill:#263238"></path><polygon points="400.92 302.35 400.67 338.38 384.49 337.22 380.87 302.13 400.92 302.35" style="fill:#ffbe9d"></polygon><path d="M383.92,330.15s11.39,8.08,16.91,1.08l1.44,3.39,6.47,24.16a3.24,3.24,0,0,1-1.82,3.88,3.13,3.13,0,0,1-3.31-.64c-4.69-4.45-21.84-20.93-21.67-23.17l.06-5.93a3,3,0,0,1,1.92-2.77Z" style="fill:#455a64"></path><g style="opacity:0.6000000000000001"><path d="M406.36,362.82l-24.43-26v1.3c-.13,1.4.49,2,1.15,2.85,2,2.67,7.45,8.63,20.42,21.08a3.12,3.12,0,0,0,2.85.8Z" style="fill:#fff"></path></g><g style="opacity:0.6000000000000001"><path d="M385.51,332.93a1.9,1.9,0,0,1,.53,2.47,1.83,1.83,0,0,1-2.45.55,2,2,0,0,1-.55-2.62,1.9,1.9,0,0,1,2.61-.29" style="fill:#fff"></path></g><path d="M399.32,349.49c.17.08.85-1.52,2.67-2.39s3.48-.5,3.52-.69-.36-.31-1.08-.41a4.94,4.94,0,0,0-2.74.5,4.87,4.87,0,0,0-2.05,1.88C399.29,349,399.24,349.46,399.32,349.49Z" style="fill:#263238"></path><path d="M401.51,353.57c.15.14,1.13-.86,2.71-1.32s2.93-.21,3-.4-1.39-.8-3.18-.24S401.35,353.49,401.51,353.57Z" style="fill:#263238"></path><path d="M395.24,344.26c.15.14,1.64-1.4,4-2.33s4.52-.87,4.53-1.08-2.23-.58-4.78.46S395.1,344.17,395.24,344.26Z" style="fill:#263238"></path><path d="M394.7,336.9c.08.19,1.77-.53,4-.61s3.94.43,4,.24-1.67-1-4-.92S394.6,336.76,394.7,336.9Z" style="fill:#263238"></path><path d="M399.92,336.22a2.61,2.61,0,0,0-.17-1.14,8.22,8.22,0,0,0-1.46-2.81,3.53,3.53,0,0,0-1.82-1.39,1.25,1.25,0,0,0-1.34.53,2.06,2.06,0,0,0-.22,1.45,4.41,4.41,0,0,0,4.56,3.31,5.15,5.15,0,0,0,4.47-3.57,1.76,1.76,0,0,0-.19-1.47,1.25,1.25,0,0,0-1.39-.41,4.35,4.35,0,0,0-1.79,1.4,8.91,8.91,0,0,0-1.61,2.72,2.71,2.71,0,0,0-.27,1.13,14.22,14.22,0,0,1,2.23-3.53,4.09,4.09,0,0,1,1.59-1.18.65.65,0,0,1,.76.22,1.21,1.21,0,0,1,.07,1,4.59,4.59,0,0,1-3.91,3.05,3.85,3.85,0,0,1-3.92-2.75,1.5,1.5,0,0,1,.12-1,.67.67,0,0,1,.73-.31,3.28,3.28,0,0,1,1.56,1.15A11.91,11.91,0,0,1,399.92,336.22Z" style="fill:#263238"></path><polygon points="439.02 271.35 458.82 308.93 443.01 318.4 417.45 282.39 439.02 271.35" style="fill:#ffbe9d"></polygon><path d="M456.34,303.9l.65,1s22.07-3.76,24.32-.51l-35.26,21.4-6.65-12A23.59,23.59,0,0,0,456.34,303.9Z" style="fill:#455a64"></path><g style="opacity:0.6000000000000001"><path d="M445.25,315.39a1.69,1.69,0,0,0,0,2.25,1.63,1.63,0,0,0,2.23,0,1.78,1.78,0,0,0,0-2.38,1.68,1.68,0,0,0-2.32.23" style="fill:#fff"></path></g><g style="opacity:0.6000000000000001"><path d="M446.05,325.83l-1.6-2.89,34.38-19.46s2-.27,2.48.95Z" style="fill:#fff"></path></g><path d="M457.17,305c.1.17-.71.77-1.22,1.84s-.53,2.07-.73,2.1-.54-1.13.1-2.41S457.11,304.79,457.17,305Z" style="fill:#263238"></path><path d="M461.8,304.25c.14.15-.43.89-.57,2s.15,2,0,2.06-.88-.81-.68-2.16S461.69,304.09,461.8,304.25Z" style="fill:#263238"></path><path d="M466.59,307.4c-.14.14-.9-.58-1-1.79s.45-2.08.61-2,0,.91.09,1.9S466.75,307.28,466.59,307.4Z" style="fill:#263238"></path><path d="M445.91,280.51l-34.48-66.36s-4.84-6.85-11.45-6.43c-3,.2-13.14,3.18-23.29,6.38h0l-.33-4.46-34.64,3.14s-10.34,19.1-8.55,32.3,4.71,13.16,4.71,13.16l28-.47,12,.44,1.6,48.48,25-2.94,1.24-41.87,17.24,32Z" style="fill:#263238"></path><path d="M365.86,254.88s.1-.09.27-.29l.75-.89,2.81-3.43,10.15-12.54h0c2.45-3.95,8.07-6.29,13.69-5.33a15.18,15.18,0,0,1,7.82,3.81,11.69,11.69,0,0,1,2.66,3.7,14.66,14.66,0,0,1,1.12,4.57c.18,1.92.13,3.84.12,5.73s0,3.76-.05,5.59c-.07,3.67-.13,7.2-.19,10.57-.14,6.74-.34,12.8-.53,17.89s-.38,9.18-.5,12.05c-.06,1.41-.11,2.5-.14,3.28,0,.36,0,.64,0,.86a1.29,1.29,0,0,0,0,.29,1.36,1.36,0,0,0,0-.29c0-.22,0-.5.07-.85.05-.78.13-1.88.22-3.28.18-2.84.41-7,.64-12.05s.47-11.15.64-17.89c.06-3.37.13-6.9.21-10.57,0-1.83,0-3.7.06-5.59a56.2,56.2,0,0,0-.13-5.78,14.92,14.92,0,0,0-1.15-4.71,12.11,12.11,0,0,0-2.77-3.84,15.48,15.48,0,0,0-8.05-3.9c-5.77-1-11.54,1.45-14.06,5.55v0l-10,12.63-2.74,3.5-.7.92A2.47,2.47,0,0,0,365.86,254.88Z" style="fill:#455a64"></path><path d="M378.22,278.48c.12,0,.22-7,.22-15.66s-.1-15.65-.22-15.65-.23,7-.23,15.65S378.09,278.48,378.22,278.48Z" style="fill:#455a64"></path><path d="M345,226a1.76,1.76,0,0,0,.47-.15l1.31-.53,4.82-2c4.07-1.65,9.73-3.84,16.06-6s12.12-4,16.34-5.23l5-1.45,1.36-.4a3.07,3.07,0,0,0,.47-.17,1.59,1.59,0,0,0-.49.08l-1.38.32c-1.2.29-2.92.73-5,1.32-4.24,1.16-10.06,2.91-16.4,5.11s-12,4.46-16,6.18c-2,.86-3.65,1.58-4.77,2.1l-1.28.6A2.53,2.53,0,0,0,345,226Z" style="fill:#455a64"></path><path d="M344,218.77a23.33,23.33,0,0,0,3.07-.12c1.89-.12,4.51-.24,7.4-.32l7.41-.15A19.39,19.39,0,0,0,365,218a2.9,2.9,0,0,0-.83-.08c-.53,0-1.29-.05-2.24-.07-1.9,0-4.52-.06-7.42,0s-5.52.25-7.41.44c-.95.1-1.71.19-2.24.27A3,3,0,0,0,344,218.77Z" style="fill:#455a64"></path><path d="M418.22,285.94c.07.05.95-1.21,2.63-3a34.48,34.48,0,0,1,3.14-3,39,39,0,0,1,4.3-3.06,35,35,0,0,1,8.8-3.76c2.38-.64,3.9-.83,3.89-.91a5.11,5.11,0,0,0-1.08.08,11.33,11.33,0,0,0-1.25.19,16.51,16.51,0,0,0-1.63.34,31.2,31.2,0,0,0-4.16,1.31,35.45,35.45,0,0,0-4.8,2.37,35.83,35.83,0,0,0-4.33,3.12,30.28,30.28,0,0,0-3.11,3.06c-.43.46-.77.91-1.08,1.29a12.24,12.24,0,0,0-.75,1A4.63,4.63,0,0,0,418.22,285.94Z" style="fill:#455a64"></path><path d="M377.46,298.59c0,.07,1.39-.67,3.69-1.62a43,43,0,0,1,9.3-2.63,42.49,42.49,0,0,1,9.67-.45c2.48.16,4,.44,4,.36a5.08,5.08,0,0,0-1.05-.26c-.69-.14-1.69-.29-2.93-.42A38.43,38.43,0,0,0,381,296.68a27.76,27.76,0,0,0-2.65,1.33A5.41,5.41,0,0,0,377.46,298.59Z" style="fill:#455a64"></path><path d="M342.47,212a1.34,1.34,0,0,1-.17.45l-.59,1.25-1,1.95c-.37.78-.77,1.65-1.22,2.61a70.23,70.23,0,0,0-5.39,15.69,39.28,39.28,0,0,0,.47,16.46c.22,1,.49,2,.71,2.78s.43,1.52.61,2.09l.4,1.32a.24.24,0,1,1-.1,0c-.14-.35-.3-.78-.49-1.29s-.45-1.25-.69-2.07-.55-1.73-.79-2.78a37.83,37.83,0,0,1-.63-16.64,64.4,64.4,0,0,1,5.57-15.75l1.29-2.58c.39-.73.74-1.37,1-1.91l.67-1.2A1.69,1.69,0,0,1,342.47,212Z" style="fill:#455a64"></path><path d="M353.86,139.35a19.67,19.67,0,0,0-2.18,2.37,19.57,19.57,0,0,0-1.31,2.95,5.37,5.37,0,0,1,3.49-5.32Z" style="fill:#263238"></path><path d="M369.67,140.94a6.16,6.16,0,0,1,1.52,5.06,20.21,20.21,0,0,1-.69-2.55A18.78,18.78,0,0,1,369.67,140.94Z" style="fill:#263238"></path><path d="M384.43,147.1s6.17,3.88,6.9,13.54A153.08,153.08,0,0,0,395,182l24.78,3.23-1.56,12.61-42,1.65Z" style="fill:#407BFF"></path><path d="M351.08,135.89l-3.85,4.38s-10,2.38-12.2,3.31S338.45,165,338.45,165l-.83,42.14a5.31,5.31,0,0,0,5.78,5.4l38.08-3.39,3.28-47.54-.33-14.53L375.35,144l-5.25-5.2h0a9.47,9.47,0,0,1-12.45,1.59Z" style="fill:#407BFF"></path><path d="M335,143.58s-7.76,3-8.42,14.68c-.43,7.7-3.14,20.86-4.94,28.94A17.44,17.44,0,0,0,324,200.42h0a17.45,17.45,0,0,0,13.93,8l32.58-4.33L370,191.82,339.9,188l-1.36-22Z" style="fill:#407BFF"></path><path d="M334.18,198.67a9.44,9.44,0,0,0,0-1.3,15.48,15.48,0,0,1,.44-3.48,9.13,9.13,0,0,1,2.5-4.44,6.66,6.66,0,0,1,2.55-1.55,9.44,9.44,0,0,1,3.22-.35,100,100,0,0,1,11.6,1.31c1.41.25,13.29,2,14.19,2.12a6.46,6.46,0,0,0,1.3.16,8.7,8.7,0,0,0-1.26-.33c-.9-.19-12.77-2-14.17-2.26A82.82,82.82,0,0,0,343,187.11a9.51,9.51,0,0,0-3.38.38,7.09,7.09,0,0,0-2.7,1.67,9.26,9.26,0,0,0-2.52,4.66,14.22,14.22,0,0,0-.31,3.55A6.28,6.28,0,0,0,334.18,198.67Z" style="fill:#263238"></path><path d="M342.12,166.07a3,3,0,0,0-.13.86c-.06.56-.12,1.37-.17,2.37-.1,2.11-.22,4.82-.35,7.81a58.86,58.86,0,0,1-.87,7.74c-.38,2-.77,3.13-.7,3.16a3.46,3.46,0,0,0,.35-.81c.1-.26.2-.59.31-1s.24-.82.35-1.31a46.6,46.6,0,0,0,1-7.78c.17-3.06.19-5.83.22-7.83q0-1.38,0-2.37A3.51,3.51,0,0,0,342.12,166.07Z" style="fill:#263238"></path><path d="M325.67,203.18a6.25,6.25,0,0,0,.88.88,21.68,21.68,0,0,0,2.73,2,23.26,23.26,0,0,0,10.59,3.32,22.1,22.1,0,0,0,6.14-.46c1.87-.4,3.44-1.06,4.81-1.38a21.64,21.64,0,0,1,3.31-.46,4.48,4.48,0,0,0,1.22-.25s-.44,0-1.24.07a19.08,19.08,0,0,0-3.37.33c-1.41.29-3,.92-4.82,1.29a22.53,22.53,0,0,1-6,.41,24.42,24.42,0,0,1-10.46-3.14A43.45,43.45,0,0,1,325.67,203.18Z" style="fill:#263238"></path><g style="opacity:0.2"><path d="M356.24,210.15a3.15,3.15,0,0,0-.32-2.44A2.54,2.54,0,0,0,354,207a15.75,15.75,0,0,0-4.75,1,33.66,33.66,0,0,1-10.89,1.35,9.8,9.8,0,0,0,5.7,2.12,29.56,29.56,0,0,0,6.15-.42l6.37-.9"></path></g><path d="M381.64,190.71c-.09-.07,1.2-1.41,2.67-4a24.59,24.59,0,0,0,1.24-22.19c-1.17-2.72-2.3-4.19-2.22-4.25a4.9,4.9,0,0,1,.81,1,20.86,20.86,0,0,1,1.75,3.08,23.8,23.8,0,0,1-1.26,22.53,21.07,21.07,0,0,1-2.08,2.87A5.35,5.35,0,0,1,381.64,190.71Z" style="fill:#263238"></path><path d="M373.62,144.49a4.08,4.08,0,0,1-.78.92,14,14,0,0,1-2.59,2,15.81,15.81,0,0,1-4.52,1.9,14,14,0,0,1-6,.24,19.15,19.15,0,0,1-5.57-2.23,26,26,0,0,1-4-2.84,17.14,17.14,0,0,1-2.29-2.35,4.13,4.13,0,0,1-.67-1,34.78,34.78,0,0,0,3.2,3.07,29.4,29.4,0,0,0,4,2.7,19.24,19.24,0,0,0,5.43,2.14,13.92,13.92,0,0,0,5.78-.2,16.51,16.51,0,0,0,4.44-1.74A26.23,26.23,0,0,0,373.62,144.49Z" style="fill:#263238"></path><path d="M357.89,141.59a19.84,19.84,0,0,1-1,3,19.23,19.23,0,0,1-1,3,7,7,0,0,1,.5-3.19A6.76,6.76,0,0,1,357.89,141.59Z" style="fill:#263238"></path><path d="M364,142.7a10.84,10.84,0,0,1,.26,3.3,10.3,10.3,0,0,1-.27,3.3,11,11,0,0,1-.25-3.3A10.84,10.84,0,0,1,364,142.7Z" style="fill:#263238"></path><path d="M343.38,160.29c-.09,0-.17-.92-.52-2.35a18.83,18.83,0,0,0-2.23-5.27,18.6,18.6,0,0,0-3.75-4.32c-1.13-.95-1.92-1.43-1.88-1.51a6.92,6.92,0,0,1,2.11,1.22,16.2,16.2,0,0,1,6.11,9.8A6.77,6.77,0,0,1,343.38,160.29Z" style="fill:#263238"></path><path d="M370.16,203a14.16,14.16,0,0,1-2.7,1c-1.7.5-4.07,1.09-6.71,1.64s-5.05,1-6.79,1.28a14.88,14.88,0,0,1-2.83.4,16,16,0,0,1,2.76-.76c1.72-.4,4.11-.89,6.75-1.43s5-1.08,6.73-1.49A18.8,18.8,0,0,1,370.16,203Z" style="fill:#263238"></path><path d="M376.14,209.84c.18-.63,9.47-37.52,11.22-44.85l35.26-1.78-12.33,43.36Z" style="fill:#e0e0e0"></path><path d="M376.14,211.88c.18-.63,9.47-37.52,11.22-44.85l35.26-1.78-12.33,43.36Z" style="fill:#ebebeb"></path><path d="M377.49,212.81c.18-.64,9.48-37.52,11.22-44.86L424,166.17l-12.33,43.36Z" style="fill:#f5f5f5"></path><path d="M376.14,209.84c.18-.63,9.47-37.52,11.22-44.85l35.26-1.78-12.33,43.36Z" style="fill:#e0e0e0"></path><path d="M376.14,209.84l.64-.08,1.83-.19,6.92-.72,24.74-2.49-.19.15c3.48-12.28,7.71-27.23,12.28-43.37l.27.33-1.07.05-34.19,1.7.22-.18c-3.36,13.22-6.2,24.39-8.21,32.28-1,3.93-1.81,7.05-2.37,9.21-.27,1.05-.48,1.87-.64,2.45-.07.27-.12.48-.17.64l-.06.22s0-.06,0-.19.09-.36.14-.62c.14-.57.34-1.38.58-2.41.53-2.16,1.28-5.26,2.24-9.18,1.95-7.95,4.72-19.19,8-32.51l0-.17h.18L421.53,163l1.07-.05.37,0-.1.35c-4.61,16.13-8.87,31.08-12.38,43.35l0,.14h-.14l-24.92,2.27-6.87.61-1.79.15Z" style="fill:#263238"></path><path d="M376.14,211.88c.18-.63,9.47-37.52,11.22-44.85l35.26-1.78-12.33,43.36Z" style="fill:#ebebeb"></path><path d="M376.14,211.88l.64-.08,1.83-.19,6.92-.72,24.74-2.49-.19.15c3.48-12.28,7.71-27.23,12.28-43.38l.27.34-1.07.05-34.19,1.7.22-.18c-3.36,13.22-6.2,24.39-8.21,32.28-1,3.93-1.81,7-2.37,9.21-.27,1.05-.48,1.87-.64,2.45-.07.27-.12.48-.17.64l-.06.22s0-.06,0-.2.09-.35.14-.61c.14-.57.34-1.38.58-2.41.53-2.16,1.28-5.26,2.24-9.18,1.95-7.95,4.72-19.19,8-32.51l0-.17h.18L421.53,165l1.07,0,.37,0-.1.35c-4.61,16.13-8.87,31.08-12.38,43.35l0,.14h-.14l-24.92,2.27-6.87.61-1.79.15Z" style="fill:#263238"></path><path d="M377.49,212.81c.18-.64,9.48-37.52,11.22-44.86L424,166.17l-12.33,43.36Z" style="fill:#f5f5f5"></path><path d="M377.49,212.81s.23,0,.64-.08l1.83-.2,6.92-.71,24.74-2.5-.18.16c3.47-12.28,7.71-27.24,12.28-43.38l.26.33-1.07,0-34.19,1.71.22-.19c-3.36,13.22-6.2,24.39-8.21,32.28-1,3.93-1.81,7.05-2.36,9.21-.28,1-.49,1.87-.64,2.46-.07.26-.13.47-.17.63s-.07.22-.07.23a.76.76,0,0,1,0-.2c0-.16.08-.36.14-.62.14-.57.33-1.37.58-2.41l2.23-9.18c2-7.94,4.72-19.19,8-32.5l0-.18h.18L422.89,166l1.07-.05.36,0-.1.35c-4.61,16.14-8.87,31.08-12.37,43.35l0,.14-.15,0L386.74,212l-6.87.61-1.79.15Z" style="fill:#263238"></path><path d="M370,191.16h4.84a31.33,31.33,0,0,1,3.15-2.73c.67-.34,4-1.34,4-1.34l-1,3.43s-.44.15-.88.32c-.84.33-.61,1.08.06,1.08h4.88s5-2.4,5.73-2,.84,1,.21,2-5,3.11-5.52,3.28l-1.43.42,1.35.42,6.36-2.22c.41-.08,1-.15,1.17.09a.85.85,0,0,1,0,1.23,26.58,26.58,0,0,1-2.87,2.27s1,1.49.17,2.25-3.28,3-3.28,3a3.56,3.56,0,0,1-1,1.85c-.76.59-9.08.59-9.67.59a24.72,24.72,0,0,1-3.95-1.93l-2.21-.23Z" style="fill:#ffbe9d"></path><path d="M384.45,199.81a3,3,0,0,0,1.91-.05,5.18,5.18,0,0,0,1.08-.58c.72-.46,1.37-.9,1.83-1.22a3.35,3.35,0,0,0,.72-.56,4.86,4.86,0,0,0-.8.44c-.48.3-1.14.71-1.86,1.18a5.66,5.66,0,0,1-1,.57,2.92,2.92,0,0,1-.93.21C384.8,199.82,384.45,199.78,384.45,199.81Z" style="fill:#eb996e"></path><path d="M384.07,202.93s.18.24.63.35a2.33,2.33,0,0,0,1.72-.29,7,7,0,0,0,1.39-1,2.25,2.25,0,0,0,.47-.54,19.78,19.78,0,0,1-2,1.4,2.4,2.4,0,0,1-1.59.33A4.11,4.11,0,0,1,384.07,202.93Z" style="fill:#eb996e"></path><path d="M381.71,196a3.5,3.5,0,0,0,1.32-.11,3.23,3.23,0,0,0,1.25-.42,6.2,6.2,0,0,0-1.29.23A6.49,6.49,0,0,0,381.71,196Z" style="fill:#eb996e"></path><path d="M423.7,189.52a1.91,1.91,0,0,0,.67-2.65,2.24,2.24,0,0,0-.68-.76,83.13,83.13,0,0,0-8.21-1.76c-.76-.11-.85,1.29.09,2s8.13,3.2,8.13,3.2Z" style="fill:#ffbe9d"></path><path d="M422.13,194.39a1.9,1.9,0,0,0,.67-2.64,2,2,0,0,0-.68-.76c-.76-.4-7.62-2.21-8.21-1.77s-.85,1.29.09,2,8.13,3.2,8.13,3.2Z" style="fill:#ffbe9d"></path><path d="M420.77,193.39a2.18,2.18,0,0,1,1.48,1.16,1.56,1.56,0,0,1,.14,1,2.92,2.92,0,0,1-2.05,2.19c-1.23.38-5.23-.52-5.23-.52l.92-2.58-2.8-.92a1,1,0,0,1,.79-1.89C414.47,192,419.16,193,420.77,193.39Z" style="fill:#ffbe9d"></path><path d="M422.86,191.82a1.9,1.9,0,0,0,.67-2.64,2,2,0,0,0-.68-.76c-.76-.41-6.87-1.49-7.59-1.65s-1.47,1.17-.53,1.85,8.13,3.2,8.13,3.2Z" style="fill:#ffbe9d"></path><path d="M416,189.36a6.37,6.37,0,0,0,1.07.28c.67.15,1.59.34,2.61.54a6.73,6.73,0,0,1,2.45.9,4.27,4.27,0,0,1,.77.76.82.82,0,0,0-.14-.27,2.38,2.38,0,0,0-.55-.6,4,4,0,0,0-1.07-.57,10.15,10.15,0,0,0-1.43-.4l-2.62-.49A8.46,8.46,0,0,0,416,189.36Z" style="fill:#eb996e"></path><path d="M417.14,187.13a5.53,5.53,0,0,0,1,.25l2.49.48a6.09,6.09,0,0,1,2.32.91,4.61,4.61,0,0,1,.72.75s0-.1-.12-.26a2.34,2.34,0,0,0-.52-.59,5.44,5.44,0,0,0-2.36-1c-1-.2-1.87-.33-2.51-.44A7.85,7.85,0,0,0,417.14,187.13Z" style="fill:#eb996e"></path><path d="M415.87,192.23a7.29,7.29,0,0,0,1,.29,23.82,23.82,0,0,0,2.37.53,6.21,6.21,0,0,1,2.26.76,4.28,4.28,0,0,1,.72.66.74.74,0,0,0-.13-.24,2.09,2.09,0,0,0-.52-.53,5.66,5.66,0,0,0-2.29-.83c-.94-.15-1.77-.35-2.38-.47A4.63,4.63,0,0,0,415.87,192.23Z" style="fill:#eb996e"></path><path d="M415.49,194.47a6.79,6.79,0,0,0,1.46.59,6.87,6.87,0,0,0,1.52.41,6.25,6.25,0,0,0-1.46-.58A7.45,7.45,0,0,0,415.49,194.47Z" style="fill:#eb996e"></path></g><g id="freepik--Floor--inject-23"><path d="M484.74,466.89c0,.14-105,.26-234.47.26S15.78,467,15.78,466.89s105-.26,234.49-.26S484.74,466.74,484.74,466.89Z" style="fill:#263238"></path></g><g id="freepik--speech-bubble--inject-23"><path d="M401.4,127.15l2.82-10.52a22.43,22.43,0,0,1-5.71-13.14C397,87.77,406.68,74,422.19,71.7A28.24,28.24,0,0,1,454.5,95.32c2.28,15.52-8.9,29.72-24.41,32-6.48,1-13.66-1.34-19-4.33h0Z" style="fill:#fff"></path><circle cx="416.74" cy="99.46" r="2.42" style="fill:#263238"></circle><path d="M428.86,99.46A2.43,2.43,0,1,1,426.43,97,2.42,2.42,0,0,1,428.86,99.46Z" style="fill:#263238"></path><path d="M438.52,98.25a2.42,2.42,0,1,1-3.3-.89A2.42,2.42,0,0,1,438.52,98.25Z" style="fill:#263238"></path><path d="M426.58,71.17a2.3,2.3,0,0,1,.49,0l1.44,0c.32,0,.67,0,1.06,0l1.27.17,1.48.22,1.66.41a26.76,26.76,0,0,1,8,3.5,28.6,28.6,0,0,1,8.3,8.08A29,29,0,0,1,455,96.83a29.43,29.43,0,0,1,.08,3.88c0,.66,0,1.32-.13,2l-.3,2a28.34,28.34,0,0,1-2.7,7.9,30.45,30.45,0,0,1-5.15,7.1,30,30,0,0,1-7.43,5.33,27,27,0,0,1-9.06,2.78,17.69,17.69,0,0,1-2.42.21,22,22,0,0,1-2.44,0,29.06,29.06,0,0,1-4.89-.61,28.75,28.75,0,0,1-9.74-4.1l.3,0-9.92,4-.59.23.17-.61q1.5-5.44,2.91-10.6l.05.26a28.56,28.56,0,0,1-5.29-12.11,25.68,25.68,0,0,1-.38-6.21,19.54,19.54,0,0,1,.28-3c.07-.49.15-1,.22-1.45s.24-.94.35-1.41A28.34,28.34,0,0,1,410,76.34a27,27,0,0,1,6.58-3.48l1.49-.53,1.4-.35,1.29-.32c.42-.08.81-.13,1.19-.18.75-.1,1.41-.23,2-.26l1.46,0,.89,0a.86.86,0,0,1,.3,0l-.3,0-.88.07-1.45.1c-.58,0-1.23.18-2,.29A28.19,28.19,0,0,0,399.43,92.6c-.11.45-.25.91-.34,1.38l-.21,1.42a19,19,0,0,0-.26,2.93,25.24,25.24,0,0,0,.4,6.09,27.86,27.86,0,0,0,5.22,11.85l.09.12,0,.14q-1.41,5.14-2.9,10.61l-.42-.37,9.92-4,.15-.06.14.09a27.78,27.78,0,0,0,14.31,4.61,21,21,0,0,0,2.38,0,18.63,18.63,0,0,0,2.37-.2,26.43,26.43,0,0,0,8.85-2.71,29,29,0,0,0,7.28-5.21,30.28,30.28,0,0,0,5.07-6.93,28.15,28.15,0,0,0,2.66-7.73c.1-.66.21-1.31.31-2s.08-1.3.13-1.94a28,28,0,0,0-12.73-24.84,26.86,26.86,0,0,0-7.9-3.56l-1.63-.44-1.47-.24-1.25-.2c-.39,0-.74-.06-1.06-.08l-1.43-.11A2.75,2.75,0,0,1,426.58,71.17Z" style="fill:#263238"></path></g></svg>